<?xml version="1.0" encoding="UTF-8" standalone="no"?>
<!DOCTYPE svg PUBLIC "-//W3C//DTD SVG 20010904//EN"
              "http://www.w3.org/TR/2001/REC-SVG-20010904/DTD/svg10.dtd">

<svg xmlns="http://www.w3.org/2000/svg"
     width="4.97778in" height="5.68889in"
     viewBox="0 0 448 512">
  <path id="Importerad bana"
        fill="none" stroke="black" stroke-width="1"
        d="M 224.10,141.00
           C 160.50,141.00 109.20,192.30 109.20,255.90
             109.20,319.50 160.50,370.80 224.10,370.80
             287.70,370.80 339.00,319.50 339.00,255.90
             339.00,192.30 287.70,141.00 224.10,141.00 Z
           M 224.10,330.60
           C 183.00,330.60 149.40,297.10 149.40,255.90
             149.40,214.70 182.90,181.20 224.10,181.20
             265.30,181.20 298.80,214.70 298.80,255.90
             298.80,297.10 265.20,330.60 224.10,330.60
             224.10,330.60 224.10,330.60 224.10,330.60 Z
           M 370.50,136.30
           C 370.50,151.20 358.50,163.10 343.70,163.10
             328.80,163.10 316.90,151.10 316.90,136.30
             316.90,121.50 328.90,109.50 343.70,109.50
             358.50,109.50 370.50,121.50 370.50,136.30 Z
           M 446.60,163.50
           C 444.90,127.60 436.70,95.80 410.40,69.60
             384.20,43.40 352.40,35.20 316.50,33.40
             279.50,31.30 168.60,31.30 131.60,33.40
             95.80,35.10 64.00,43.30 37.70,69.50
             11.40,95.70 3.30,127.50 1.50,163.40
             -0.60,200.40 -0.60,311.30 1.50,348.30
             3.20,384.20 11.40,416.00 37.70,442.20
             64.00,468.40 95.70,476.60 131.60,478.40
             168.60,480.50 279.50,480.50 316.50,478.40
             352.40,476.70 384.20,468.50 410.40,442.20
             436.60,416.00 444.80,384.20 446.60,348.30
             448.70,311.30 448.70,200.50 446.60,163.50
             446.60,163.50 446.60,163.50 446.60,163.50 Z
           M 398.80,388.00
           C 391.00,407.60 375.90,422.70 356.20,430.60
             326.70,442.30 256.70,439.60 224.10,439.60
             191.50,439.60 121.40,442.20 92.00,430.60
             72.40,422.80 57.30,407.70 49.40,388.00
             37.70,358.50 40.40,288.50 40.40,255.90
             40.40,223.30 37.80,153.20 49.40,123.80
             57.20,104.20 72.30,89.10 92.00,81.20
             121.50,69.50 191.50,72.20 224.10,72.20
             256.70,72.20 326.80,69.60 356.20,81.20
             375.80,89.00 390.90,104.10 398.80,123.80
             410.50,153.30 407.80,223.30 407.80,255.90
             407.80,288.50 410.50,358.60 398.80,388.00 Z" />
</svg>
